<svg width="244" height="153" viewBox="0 0 244 153" fill="none" xmlns="http://www.w3.org/2000/svg">
<path d="M212.337 64.82L207.339 66.7049L224.495 95.0202L199.095 152.127L150.99 112.041L153.804 79.1159L148.436 79.6825C137.057 80.7746 125.615 81.0732 114.193 80.5763L113.656 80.5491C112.345 80.5008 111.024 80.4203 109.709 80.322C108.223 80.24 106.727 80.1258 105.252 80.0081C87.4389 78.5814 69.8403 75.1636 52.7865 69.8189C49.6901 68.8777 46.6351 67.8325 43.5669 66.7345C28.5761 61.366 14.1447 54.5493 0.478343 46.3814L26.201 5.08141L27.9449 2.29476C30.9672 4.08881 34.0271 5.78078 37.1246 7.37069C56.3135 17.3611 77.0708 23.9994 98.4964 26.9978C101.626 27.4434 104.767 27.824 107.912 28.0896C149.182 31.8324 190.546 22.2096 225.877 0.646186C229.938 17.84 235.835 34.551 243.469 50.4919C233.438 55.983 223.036 60.7705 212.337 64.82Z" fill="#A0A0A0" fill-opacity="0.05"/>
</svg>
