<svg width="78" height="200" viewBox="0 0 78 200" fill="none" xmlns="http://www.w3.org/2000/svg">
<path d="M56.3985 55.0767L58.4748 60.1066L25.4727 67.0495L0.669942 125.685L63.9656 133.572L86.4986 108.566L89.8126 112.953C96.9189 122.177 104.659 130.896 112.978 139.047L113.372 139.428C114.32 140.369 115.299 141.296 116.288 142.206C117.383 143.254 118.509 144.287 119.623 145.302C133.081 157.56 147.87 168.272 163.714 177.238C166.569 178.886 169.472 180.431 172.424 181.95C186.85 189.365 201.964 195.356 217.55 199.837L230.37 151.962L231.23 148.726C227.792 147.726 224.404 146.627 221.066 145.43C200.28 138.108 180.897 127.287 163.756 113.437C161.246 111.418 158.778 109.347 156.391 107.192C124.887 79.0984 103.259 41.633 94.7115 0.34496C79.0963 9.29026 62.5613 16.5327 45.391 21.9476C48.2874 33.2307 51.9654 44.3005 56.3985 55.0767Z" fill="#A0A0A0" fill-opacity="0.05"/>
</svg>
